<svg xmlns="http://www.w3.org/2000/svg" version="1.1" xmlns:xlink="http://www.w3.org/1999/xlink" width="1500" height="104" viewBox="0 0 1500 104"><svg xml:space="preserve" width="1500" height="104" data-version="2" data-id="lg_kyPGs9vahWqTf1lwHb" viewBox="0 0 569 104" x="0" y="0"><rect width="100%" height="100%" fill="transparent"></rect><path fill="#fbb04b" d="M145.07 29.86q0-7.22 5.41-11.4 5.41-4.18 13.36-4.18 7.96 0 13.08 3.73 5.13 3.73 5.13 9.27 0 5.53-2.42 8.93-2.42 3.41-7.71 3.41t-7.75-3.45q-2.46-3.44-2.46-8.36h6.56q0 5.66 3.69 5.66 3.53 0 3.53-5.66 0-3.44-3.16-5.41-3.16-1.97-8.2-1.97-5.04 0-8.61 2.38-3.57 2.38-3.57 6.31 0 3.94 3.24 6.64 3.24 2.71 7.96 5.05 4.71 2.33 5.45 2.74.74.41 3.2 1.68 2.46 1.28 3.24 1.89.78.62 2.54 1.93t2.42 2.29l1.56 2.38q1.55 2.54 1.55 6.32 0 6.88-5.69 10.29-5.7 3.4-15.79 3.4t-17.3-4.18V58.48h5.74v6.64q5.49 2.46 11.93 2.46 6.44 0 10.25-2.3 3.81-2.29 3.81-5.9 0-3.36-3.85-6.15-3.04-2.05-11.11-6.07-8.08-4.02-12.06-7.71-3.97-3.69-3.97-9.59"></path><rect width="38.78" height="59.45" x="-19.39" y="-29.73" fill="none" rx="0" ry="0" transform="translate(164.22 44.5)"></rect><path fill="#fbb04b" d="M186.89 37.4v-5.33h11.72l1.15 5.01q4.92-5.83 12.63-5.83 7.71 0 11.89 5.95 4.18 5.94 4.18 15.25 0 9.31-4.92 15.38-4.92 6.06-14.02 6.06-4.27 0-9.35-1.64v13.12h6.31v5.33h-19.59v-5.33h6.31V37.4Zm34.6 15.46v-3.38q0-3.38-2.71-7.73-2.7-4.35-7.58-4.35t-7.95 3.86q-3.08 3.85-3.08 9.26V65.2q4.43 2.54 8.77 2.54 5.66 0 9.11-4.06 3.44-4.05 3.44-10.82"></path><rect width="41.57" height="59.45" x="-20.79" y="-29.73" fill="none" rx="0" ry="0" transform="translate(208.18 61.48)"></rect><path fill="#fbb04b" d="M233.05 16.9v-5.33h13.29v56.17h7.13v5.33h-20.5v-5.33h6.4V16.9Z"></path><rect width="20.5" height="61.5" x="-10.25" y="-30.75" fill="none" rx="0" ry="0" transform="translate(243.72 42.82)"></rect><path fill="#fbb04b" d="M258.88 37.4v-5.33h13.29v35.67h7.13v5.33h-20.5v-5.33h6.4V37.4Zm9.6-12.62h-.91q-.9 0-2.05-1.32-1.14-1.31-1.14-3.15 0-1.85 1.27-3.24 1.27-1.4 3.07-1.4 1.81 0 2.95 1.32 1.15 1.31 1.15 3.15 0 1.85-1.27 3.24-1.27 1.4-3.07 1.4"></path><rect width="20.5" height="57.4" x="-10.25" y="-28.7" fill="none" rx="0" ry="0" transform="translate(269.55 44.87)"></rect><path fill="#fbb04b" d="M282.99 37.4v-4.51l6.31-.82h.82q2.63-6.15 3.53-10.82h3.44v10.82h12.22v5.33h-12.22v25.18q0 2.79.95 4.02.94 1.23 3.24 1.23 2.29 0 6.15-1.56l2.7 4.67q-4.67 2.95-10 2.95t-7.67-2.78q-2.34-2.79-2.34-7.22V37.4Z"></path><rect width="27.14" height="52.64" x="-13.57" y="-26.32" fill="none" rx="0" ry="0" transform="translate(297.06 48.07)"></rect><path fill="#fbb04b" d="M340.88 29.86q0-7.22 5.41-11.4 5.42-4.18 13.37-4.18 7.95 0 13.08 3.73 5.12 3.73 5.12 9.27 0 5.53-2.41 8.93-2.42 3.41-7.71 3.41t-7.75-3.45q-2.46-3.44-2.46-8.36h6.56q0 5.66 3.69 5.66 3.52 0 3.52-5.66 0-3.44-3.15-5.41-3.16-1.97-8.2-1.97-5.05 0-8.61 2.38-3.57 2.38-3.57 6.31 0 3.94 3.24 6.64 3.24 2.71 7.95 5.05 4.72 2.33 5.46 2.74.73.41 3.19 1.68 2.46 1.28 3.24 1.89.78.62 2.55 1.93 1.76 1.31 2.41 2.29.66.99 1.56 2.38 1.56 2.54 1.56 6.32 0 6.88-5.7 10.29-5.7 3.4-15.78 3.4-10.09 0-17.31-4.18V58.48h5.74v6.64q5.5 2.46 11.94 2.46 6.43 0 10.25-2.3 3.81-2.29 3.81-5.9 0-3.36-3.86-6.15-3.03-2.05-11.11-6.07-8.07-4.02-12.05-7.71-3.98-3.69-3.98-9.59"></path><rect width="38.79" height="59.45" x="-19.39" y="-29.73" fill="none" rx="0" ry="0" transform="translate(360.04 44.5)"></rect><path fill="#fbb04b" d="M419.19 85.37h6.32v5.33h-20.42v-5.33h7.13V68.65q-5 5.24-12.5 5.24-7.51 0-11.65-6.02-4.14-6.03-4.14-15.34 0-9.3 5.17-15.29 5.16-5.99 15-5.99 7.14 0 15.09 2.46Zm-25.62-22.05 1.33 2.21q1.33 2.21 6.25 2.21t8-3.85q3.07-3.85 3.07-9.27V38.88q-4.02-1.48-7.46-1.48-6.81 0-10.33 4.19-3.53 4.18-3.53 10.74 0 6.56 2.67 10.99"></path><rect width="41.58" height="59.45" x="-20.79" y="-29.73" fill="none" rx="0" ry="0" transform="translate(405.22 61.48)"></rect><path fill="#fbb04b" d="M453.88 37.4v-5.33h13.28v36.08h6.73v3.45q-3.04 1.88-8.08 1.88t-5.54-4.34q-8.61 4.84-15.45 4.84-6.85 0-9.51-4.19-2.67-4.18-2.67-11.56V37.4h-6.31v-5.33h13.28v26.16q0 4.76 1.23 7.18t5.66 2.42q4.43 0 13.69-4.92V37.4Z"></path><rect width="47.56" height="41.91" x="-23.78" y="-20.95" fill="none" rx="0" ry="0" transform="translate(450.61 53.52)"></rect><path fill="#fbb04b" d="M489.22 73.89q-5.66 0-8.86-3.24-3.19-3.23-3.19-8.69 0-5.45 4.26-9.14 4.26-3.69 12.63-3.69H503v-4.18q0-7.55-7.22-7.55-6.07 0-11.15 1.48v5.49h-5.74v-9.75q3.69-1.56 8.73-2.46 5.04-.91 8.41-.91 6.56 0 10.25 3.73 3.69 3.74 3.69 9.97v23.2h6.72v3.45q-3.03 1.88-6.97 1.88t-5.33-1.31Q503 70.86 503 67.74q-6.15 6.15-13.78 6.15m.74-6.15q7.05 0 13.04-7.95v-5.25h-9.02q-5.01 0-7.42 1.97-2.42 1.97-2.42 4.96t1.47 4.63q1.48 1.64 4.35 1.64"></path><rect width="39.52" height="42.64" x="-19.76" y="-21.32" fill="none" rx="0" ry="0" transform="translate(497.43 53.07)"></rect><path fill="#fbb04b" d="M555.64 11.57v56.58h6.72v3.45q-3.03 1.88-6.88 1.88-3.86 0-5.29-1.1-1.44-1.11-1.52-3.82-4.84 5.33-12.38 5.33-7.55 0-11.73-5.94-4.18-5.95-4.18-15.25 0-9.31 4.92-15.38t14.02-6.07q4.43 0 9.35 1.73V16.9h-6.31v-5.33Zm-28.29 40.72v3.38q0 3.38 2.71 7.73 2.7 4.34 7.58 4.34t7.96-3.85q3.07-3.85 3.07-9.27V40.03q-4.35-2.63-9.39-2.63-5.04 0-8.49 4.06-3.44 4.06-3.44 10.83"></path><rect width="41.98" height="62.32" x="-20.99" y="-31.16" fill="none" rx="0" ry="0" transform="translate(541.87 43.23)"></rect><path fill="#8a8d56" d="M9.185 55.585h37.569c.709 4.679 2.835 9.215 6.38 12.76 4.394 4.394 10.065 6.805 16.303 6.805 4.962 0 9.64-1.56 13.61-4.395l21.833 21.69-18.572 3.686c-1.985.426-3.12 2.269-2.836 4.112.284 1.701 1.843 2.835 3.403 2.835h.709l25.093-4.962a3.642 3.642 0 0 0 2.835-2.835l4.962-24.952c.426-1.984-.85-3.827-2.835-4.111-1.985-.425-3.828.85-4.112 2.835l-3.686 18.43L88.01 65.652c5.954-8.081 5.954-19.139 0-27.078l21.832-21.975 3.686 18.572c.284 1.702 1.843 2.836 3.403 2.836h.709c1.985-.426 3.119-2.269 2.835-4.112l-4.962-25.093a3.642 3.642 0 0 0-2.835-2.835L87.725 1.004c-1.984-.426-3.827.85-4.111 2.835-.425 1.985.85 3.828 2.835 4.112l18.43 3.686-21.832 21.832c-3.97-2.835-8.648-4.395-13.61-4.395-6.096 0-11.909 2.41-16.304 6.805-3.544 3.544-5.67 8.081-6.38 12.76H9.186C7.2 48.497 5.64 50.056 5.64 52.04s1.56 3.544 3.545 3.544m46.5-17.296c3.686-3.686 8.507-5.67 13.752-5.67 5.245 0 10.066 1.984 13.752 5.67 7.655 7.656 7.655 19.99 0 27.504-3.686 3.686-8.507 5.67-13.752 5.67-5.245 0-10.066-1.984-13.752-5.67-7.655-7.514-7.655-19.99 0-27.504"></path></svg></svg>